<svg width="53" height="53" viewBox="0 0 53 53" fill="none" xmlns="http://www.w3.org/2000/svg">
<path d="M46.9274 36.1276C44.9841 36.1276 44.1228 35.3768 42.9082 34.3168C41.5611 33.1684 39.8828 31.7109 36.7249 31.7109C33.5449 31.7109 31.8886 33.1684 30.5415 34.3168C29.327 35.3768 28.4437 36.1276 26.5003 36.1276C24.5791 36.1276 23.6957 35.3768 22.4811 34.3168C21.1341 33.1684 19.4558 31.7109 16.2978 31.7109C13.1178 31.7109 11.4395 33.1684 10.0924 34.3168C8.87784 35.3768 8.01658 36.1276 6.07324 36.1276C5.16783 36.1276 4.41699 36.8784 4.41699 37.7839C4.41699 38.7114 5.16783 39.4401 6.07324 39.4401C9.25324 39.4401 10.9095 38.0047 12.2565 36.8343C13.4711 35.7743 14.3545 35.0234 16.2978 35.0234C18.2412 35.0234 19.1024 35.7743 20.317 36.8343C21.6641 38.0047 23.3424 39.4401 26.5003 39.4401C29.6803 39.4401 31.3587 38.0047 32.7057 36.8343C33.9203 35.7743 34.7816 35.0234 36.7249 35.0234C38.6462 35.0234 39.5295 35.7743 40.7441 36.8343C42.0912 38.0047 43.7695 39.4401 46.9274 39.4401C47.8328 39.4401 48.5837 38.7114 48.5837 37.7839C48.5837 36.8784 47.8328 36.1276 46.9274 36.1276Z" fill="#141416"/>
<path d="M46.9274 27.0299C44.9841 27.0299 44.1228 26.257 42.9082 25.2191C41.5611 24.0487 39.8828 22.6133 36.7249 22.6133C33.5449 22.6133 31.8886 24.0487 30.5415 25.2191C29.327 26.257 28.4437 27.0299 26.5003 27.0299C24.5791 27.0299 23.6957 26.257 22.4811 25.2191C21.1341 24.0487 19.4558 22.6133 16.2978 22.6133C13.1178 22.6133 11.4395 24.0487 10.0924 25.2191C8.87784 26.257 8.01658 27.0299 6.07324 27.0299C5.16783 27.0299 4.41699 27.7587 4.41699 28.6862C4.41699 29.5916 5.16783 30.3424 6.07324 30.3424C9.25324 30.3424 10.9095 28.8849 12.2565 27.7145C13.4711 26.6766 14.3545 25.9258 16.2978 25.9258C18.2412 25.9258 19.1024 26.6766 20.317 27.7145C21.6641 28.8849 23.3424 30.3424 26.5003 30.3424C29.6803 30.3424 31.3587 28.8849 32.7057 27.7145C33.9203 26.6766 34.7816 25.9258 36.7249 25.9258C38.6462 25.9258 39.5295 26.6766 40.7441 27.7145C42.0912 28.8849 43.7695 30.3424 46.9274 30.3424C47.8328 30.3424 48.5837 29.5916 48.5837 28.6862C48.5837 27.7587 47.8328 27.0299 46.9274 27.0299Z" fill="#141416"/>
<path d="M6.07324 21.2878C9.25324 21.2878 10.9095 19.8303 12.2565 18.6819C13.4711 17.6219 14.3545 16.8711 16.2978 16.8711C18.2412 16.8711 19.1024 17.6219 20.317 18.6819C21.6641 19.8303 23.3424 21.2878 26.5003 21.2878C29.6803 21.2878 31.3587 19.8303 32.7057 18.6819C33.9203 17.6219 34.7816 16.8711 36.7249 16.8711C38.6462 16.8711 39.5295 17.6219 40.7441 18.6819C42.0912 19.8303 43.7695 21.2878 46.9274 21.2878C47.8328 21.2878 48.5837 20.5369 48.5837 19.6315C48.5837 18.704 47.8328 17.9753 46.9274 17.9753C44.9841 17.9753 44.1228 17.2244 42.9082 16.1644C41.5611 14.994 39.8828 13.5586 36.7249 13.5586C33.5449 13.5586 31.8886 14.994 30.5415 16.1644C29.327 17.2244 28.4437 17.9753 26.5003 17.9753C24.5791 17.9753 23.6957 17.2244 22.4811 16.1644C21.1341 14.994 19.4558 13.5586 16.2978 13.5586C13.1178 13.5586 11.4395 14.994 10.0924 16.1644C8.87784 17.2244 8.01658 17.9753 6.07324 17.9753C5.16783 17.9753 4.41699 18.704 4.41699 19.6315C4.41699 20.5369 5.16783 21.2878 6.07324 21.2878Z" fill="#141416"/>
</svg>
