<svg width="52" height="52" viewBox="0 0 52 52" fill="none" xmlns="http://www.w3.org/2000/svg">
<path fill-rule="evenodd" clip-rule="evenodd" d="M6.78516 11.1495C6.78516 6.4329 10.6087 2.60938 15.3252 2.60938H33.138C35.403 2.60938 37.5752 3.50913 39.1768 5.11071L42.7142 8.64813C44.3158 10.2497 45.2155 12.4219 45.2155 14.6869V41.0398C45.2155 45.7563 41.392 49.5798 36.6754 49.5798H15.3252C10.6087 49.5798 6.78516 45.7563 6.78516 41.0398V11.1495ZM40.9455 17.5545V41.0398C40.9455 43.398 39.0337 45.3098 36.6754 45.3098H15.3252C12.967 45.3098 11.0552 43.398 11.0552 41.0398V11.1495C11.0552 8.79118 12.967 6.87942 15.3252 6.87942H30.2704V11.1495C30.2704 14.6869 33.138 17.5545 36.6754 17.5545H40.9455ZM40.7086 13.2845C40.499 12.6815 40.1548 12.1275 39.6948 11.6675L36.1574 8.13008C35.6975 7.67013 35.1434 7.32594 34.5404 7.11628V11.1495C34.5404 12.3286 35.4963 13.2845 36.6754 13.2845H40.7086Z" fill="#141416"/>
<path d="M25.1833 19.8515C24.9315 19.9556 24.6955 20.1101 24.4908 20.3148L18.0858 26.7198C17.252 27.5536 17.252 28.9054 18.0858 29.7392C18.9196 30.573 20.2714 30.573 21.1052 29.7392L23.8655 26.9789V36.7696C23.8655 37.9488 24.8214 38.9046 26.0005 38.9046C27.1797 38.9046 28.1356 37.9488 28.1356 36.7696V26.9789L30.8959 29.7392C31.7297 30.573 33.0815 30.573 33.9153 29.7392C34.7491 28.9054 34.7491 27.5536 33.9153 26.7198L27.5102 20.3148C26.8811 19.6857 25.9572 19.5313 25.1833 19.8515Z" fill="#141416"/>
</svg>
