<svg width="628" height="678" viewBox="0 0 628 678" fill="none" xmlns="http://www.w3.org/2000/svg">
<g filter="url(#filter0_dd_172_24015)">
<rect x="80" y="162" width="268" height="213" rx="30.7443" fill="#FCFCFD" shape-rendering="crispEdges"/>
<path fill-rule="evenodd" clip-rule="evenodd" d="M294.785 321.149C294.785 316.433 298.608 312.609 303.325 312.609H321.138C323.403 312.609 325.575 313.509 327.177 315.111L330.714 318.648C332.316 320.25 333.215 322.422 333.215 324.687V351.04C333.215 355.756 329.392 359.58 324.675 359.58H303.325C298.608 359.58 294.785 355.756 294.785 351.04V321.149ZM328.945 327.555V351.04C328.945 353.398 327.033 355.31 324.675 355.31H303.325C300.967 355.31 299.055 353.398 299.055 351.04V321.149C299.055 318.791 300.967 316.879 303.325 316.879H318.27V321.149C318.27 324.687 321.138 327.555 324.675 327.555H328.945ZM328.708 323.284C328.499 322.682 328.155 322.127 327.695 321.668L324.157 318.13C323.697 317.67 323.143 317.326 322.54 317.116V321.149C322.54 322.329 323.496 323.284 324.675 323.284H328.708Z" fill="#141416"/>
<path d="M313.183 329.851C312.931 329.956 312.695 330.11 312.491 330.315L306.086 336.72C305.252 337.554 305.252 338.905 306.086 339.739C306.919 340.573 308.271 340.573 309.105 339.739L311.865 336.979V346.77C311.865 347.949 312.821 348.905 314 348.905C315.179 348.905 316.135 347.949 316.135 346.77V336.979L318.896 339.739C319.729 340.573 321.081 340.573 321.915 339.739C322.749 338.905 322.749 337.554 321.915 336.72L315.51 330.315C314.881 329.686 313.957 329.531 313.183 329.851Z" fill="#141416"/>
<path d="M237.703 384.947C237.703 385.839 237.395 386.581 236.78 387.176C236.176 387.76 235.248 388.052 233.998 388.052H231.938V392.525H230.539V381.811H233.998C235.207 381.811 236.125 382.103 236.75 382.687C237.385 383.271 237.703 384.025 237.703 384.947ZM233.998 386.899C234.777 386.899 235.351 386.73 235.72 386.392C236.089 386.054 236.273 385.572 236.273 384.947C236.273 383.625 235.515 382.964 233.998 382.964H231.938V386.899H233.998ZM247.865 392.525H246.466L240.84 383.994V392.525H239.441V381.796H240.84L246.466 390.312V381.796H247.865V392.525ZM258.366 384.916C258.069 384.291 257.639 383.809 257.075 383.471C256.512 383.123 255.856 382.949 255.108 382.949C254.359 382.949 253.683 383.123 253.078 383.471C252.484 383.809 252.013 384.301 251.664 384.947C251.326 385.582 251.157 386.32 251.157 387.161C251.157 388.001 251.326 388.739 251.664 389.374C252.013 390.009 252.484 390.501 253.078 390.85C253.683 391.188 254.359 391.357 255.108 391.357C256.153 391.357 257.014 391.045 257.69 390.419C258.366 389.794 258.761 388.949 258.874 387.883H254.6V386.745H260.365V387.822C260.283 388.703 260.006 389.512 259.535 390.25C259.063 390.978 258.443 391.557 257.675 391.987C256.906 392.408 256.05 392.618 255.108 392.618C254.113 392.618 253.207 392.387 252.387 391.926C251.567 391.454 250.916 390.804 250.434 389.974C249.963 389.144 249.727 388.206 249.727 387.161C249.727 386.115 249.963 385.178 250.434 384.347C250.916 383.507 251.567 382.856 252.387 382.395C253.207 381.924 254.113 381.688 255.108 381.688C256.245 381.688 257.249 381.97 258.12 382.533C259.002 383.097 259.642 383.891 260.042 384.916H258.366ZM263.659 390.588L261.938 394.724H261L262.122 390.588H263.659ZM277.477 384.916C277.179 384.291 276.749 383.809 276.185 383.471C275.622 383.123 274.966 382.949 274.218 382.949C273.47 382.949 272.793 383.123 272.189 383.471C271.594 383.809 271.123 384.301 270.774 384.947C270.436 385.582 270.267 386.32 270.267 387.161C270.267 388.001 270.436 388.739 270.774 389.374C271.123 390.009 271.594 390.501 272.189 390.85C272.793 391.188 273.47 391.357 274.218 391.357C275.263 391.357 276.124 391.045 276.8 390.419C277.477 389.794 277.871 388.949 277.984 387.883H273.71V386.745H279.475V387.822C279.393 388.703 279.116 389.512 278.645 390.25C278.173 390.978 277.553 391.557 276.785 391.987C276.016 392.408 275.16 392.618 274.218 392.618C273.224 392.618 272.317 392.387 271.497 391.926C270.677 391.454 270.026 390.804 269.545 389.974C269.073 389.144 268.837 388.206 268.837 387.161C268.837 386.115 269.073 385.178 269.545 384.347C270.026 383.507 270.677 382.856 271.497 382.395C272.317 381.924 273.224 381.688 274.218 381.688C275.355 381.688 276.359 381.97 277.231 382.533C278.112 383.097 278.752 383.891 279.152 384.916H277.477ZM282.723 381.811V392.525H281.324V381.811H282.723ZM291.164 381.811V382.949H286.506V386.561H290.288V387.699H286.506V392.525H285.107V381.811H291.164ZM294.299 390.588L292.577 394.724H291.639L292.761 390.588H294.299ZM313.465 381.811L310.36 392.525H308.792L306.302 383.902L303.719 392.525L302.167 392.541L299.169 381.811H300.66L302.997 390.896L305.579 381.811H307.147L309.607 390.865L311.959 381.811H313.465ZM316.395 382.949V386.53H320.3V387.683H316.395V391.372H320.761V392.525H314.996V381.796H320.761V382.949H316.395ZM328.242 387.007C328.632 387.068 328.985 387.227 329.303 387.483C329.631 387.74 329.887 388.057 330.072 388.436C330.266 388.816 330.364 389.22 330.364 389.651C330.364 390.194 330.225 390.686 329.949 391.127C329.672 391.557 329.267 391.9 328.734 392.156C328.211 392.402 327.591 392.525 326.874 392.525H322.877V381.811H326.72C327.448 381.811 328.068 381.934 328.58 382.18C329.093 382.416 329.477 382.738 329.733 383.148C329.99 383.558 330.118 384.019 330.118 384.532C330.118 385.167 329.943 385.695 329.595 386.115C329.257 386.525 328.806 386.822 328.242 387.007ZM324.276 386.438H326.628C327.284 386.438 327.791 386.284 328.15 385.977C328.509 385.669 328.688 385.244 328.688 384.701C328.688 384.158 328.509 383.733 328.15 383.425C327.791 383.118 327.274 382.964 326.597 382.964H324.276V386.438ZM326.751 391.372C327.448 391.372 327.991 391.209 328.381 390.881C328.77 390.553 328.965 390.097 328.965 389.512C328.965 388.918 328.76 388.452 328.35 388.114C327.94 387.765 327.392 387.591 326.705 387.591H324.276V391.372H326.751ZM339.468 384.947C339.468 385.839 339.161 386.581 338.546 387.176C337.941 387.76 337.014 388.052 335.764 388.052H333.704V392.525H332.305V381.811H335.764C336.973 381.811 337.89 382.103 338.515 382.687C339.151 383.271 339.468 384.025 339.468 384.947ZM335.764 386.899C336.542 386.899 337.116 386.73 337.485 386.392C337.854 386.054 338.039 385.572 338.039 384.947C338.039 383.625 337.28 382.964 335.764 382.964H333.704V386.899H335.764ZM342.652 390.588L340.93 394.724H339.992L341.115 390.588H342.652ZM359.221 381.888V392.525H357.822V384.593L354.286 392.525H353.302L349.751 384.578V392.525H348.352V381.888H349.859L353.794 390.681L357.729 381.888H359.221ZM368.756 384.947C368.756 385.839 368.449 386.581 367.834 387.176C367.229 387.76 366.302 388.052 365.052 388.052H362.992V392.525H361.593V381.811H365.052C366.261 381.811 367.178 382.103 367.803 382.687C368.439 383.271 368.756 384.025 368.756 384.947ZM365.052 386.899C365.831 386.899 366.404 386.73 366.773 386.392C367.142 386.054 367.327 385.572 367.327 384.947C367.327 383.625 366.568 382.964 365.052 382.964H362.992V386.899H365.052ZM369.926 390.05V388.99L375.322 381.519H376.997V388.836H378.535V390.05H376.997V392.525H375.614V390.05H369.926ZM375.675 382.979L371.54 388.836H375.675V382.979ZM387.935 392.664C387.146 392.664 386.428 392.484 385.783 392.126C385.147 391.767 384.645 391.26 384.276 390.604C383.918 389.938 383.738 389.169 383.738 388.298C383.738 387.437 383.923 386.679 384.292 386.023C384.671 385.357 385.183 384.85 385.829 384.501C386.474 384.142 387.197 383.963 387.996 383.963C388.796 383.963 389.518 384.142 390.164 384.501C390.809 384.85 391.317 385.352 391.686 386.008C392.065 386.663 392.254 387.427 392.254 388.298C392.254 389.169 392.06 389.938 391.67 390.604C391.291 391.26 390.774 391.767 390.118 392.126C389.462 392.484 388.734 392.664 387.935 392.664ZM387.935 391.434C388.437 391.434 388.908 391.316 389.349 391.08C389.79 390.845 390.143 390.491 390.41 390.02C390.686 389.548 390.825 388.974 390.825 388.298C390.825 387.622 390.692 387.048 390.425 386.576C390.159 386.105 389.81 385.757 389.38 385.531C388.949 385.295 388.483 385.178 387.981 385.178C387.469 385.178 386.997 385.295 386.567 385.531C386.147 385.757 385.808 386.105 385.552 386.576C385.296 387.048 385.168 387.622 385.168 388.298C385.168 388.985 385.291 389.564 385.537 390.035C385.793 390.507 386.131 390.86 386.551 391.096C386.971 391.321 387.433 391.434 387.935 391.434ZM395.492 385.47C395.738 384.988 396.087 384.614 396.538 384.347C396.999 384.081 397.557 383.948 398.213 383.948V385.393H397.844C396.276 385.393 395.492 386.243 395.492 387.944V392.525H394.094V384.101H395.492V385.47ZM273.998 407.888V418.525H272.599V410.593L269.064 418.525H268.08L264.529 410.578V418.525H263.13V407.888H264.637L268.572 416.681L272.507 407.888H273.998ZM283.534 410.947C283.534 411.839 283.227 412.581 282.612 413.176C282.007 413.76 281.08 414.052 279.829 414.052H277.769V418.525H276.371V407.811H279.829C281.039 407.811 281.956 408.103 282.581 408.687C283.216 409.271 283.534 410.025 283.534 410.947ZM279.829 412.899C280.608 412.899 281.182 412.73 281.551 412.392C281.92 412.054 282.104 411.572 282.104 410.947C282.104 409.625 281.346 408.964 279.829 408.964H277.769V412.899H279.829ZM285.011 410.209C285.083 409.266 285.447 408.528 286.103 407.995C286.759 407.463 287.609 407.196 288.654 407.196C289.351 407.196 289.951 407.324 290.453 407.58C290.965 407.826 291.35 408.165 291.606 408.595C291.872 409.025 292.006 409.512 292.006 410.055C292.006 410.691 291.821 411.239 291.452 411.7C291.094 412.161 290.622 412.459 290.038 412.592V412.669C290.704 412.833 291.232 413.155 291.621 413.637C292.011 414.119 292.205 414.749 292.205 415.528C292.205 416.112 292.072 416.64 291.806 417.111C291.539 417.572 291.14 417.936 290.607 418.203C290.074 418.469 289.433 418.602 288.685 418.602C287.599 418.602 286.707 418.32 286.01 417.757C285.314 417.183 284.924 416.373 284.842 415.328H286.195C286.267 415.943 286.518 416.445 286.948 416.834C287.379 417.224 287.953 417.419 288.67 417.419C289.387 417.419 289.93 417.234 290.299 416.865C290.678 416.486 290.868 415.999 290.868 415.405C290.868 414.636 290.612 414.083 290.099 413.745C289.587 413.406 288.813 413.237 287.778 413.237H287.425V412.069H287.794C288.736 412.059 289.449 411.905 289.93 411.608C290.412 411.3 290.653 410.829 290.653 410.194C290.653 409.651 290.474 409.215 290.115 408.887C289.766 408.559 289.264 408.395 288.608 408.395C287.973 408.395 287.461 408.559 287.071 408.887C286.682 409.215 286.451 409.656 286.379 410.209H285.011ZM294.771 418.618C294.504 418.618 294.279 418.525 294.094 418.341C293.91 418.156 293.817 417.931 293.817 417.665C293.817 417.398 293.91 417.173 294.094 416.988C294.279 416.804 294.504 416.711 294.771 416.711C295.027 416.711 295.242 416.804 295.416 416.988C295.601 417.173 295.693 417.398 295.693 417.665C295.693 417.931 295.601 418.156 295.416 418.341C295.242 418.525 295.027 418.618 294.771 418.618ZM312.519 407.888V418.525H311.12V410.593L307.584 418.525H306.6L303.049 410.578V418.525H301.651V407.888H303.157L307.092 416.681L311.028 407.888H312.519ZM314.368 414.283C314.368 413.422 314.543 412.669 314.891 412.023C315.239 411.367 315.716 410.86 316.321 410.501C316.936 410.142 317.617 409.963 318.365 409.963C319.103 409.963 319.744 410.122 320.287 410.44C320.83 410.757 321.235 411.157 321.501 411.639V410.101H322.915V418.525H321.501V416.957C321.224 417.449 320.809 417.859 320.256 418.187C319.713 418.505 319.077 418.664 318.35 418.664C317.602 418.664 316.925 418.479 316.321 418.11C315.716 417.741 315.239 417.224 314.891 416.558C314.543 415.892 314.368 415.133 314.368 414.283ZM321.501 414.298C321.501 413.663 321.373 413.109 321.117 412.638C320.861 412.166 320.512 411.808 320.071 411.562C319.641 411.306 319.164 411.178 318.642 411.178C318.119 411.178 317.643 411.3 317.212 411.546C316.782 411.792 316.439 412.151 316.182 412.622C315.926 413.094 315.798 413.647 315.798 414.283C315.798 414.928 315.926 415.492 316.182 415.974C316.439 416.445 316.782 416.809 317.212 417.065C317.643 417.311 318.119 417.434 318.642 417.434C319.164 417.434 319.641 417.311 320.071 417.065C320.512 416.809 320.861 416.445 321.117 415.974C321.373 415.492 321.501 414.933 321.501 414.298ZM329.676 418.525L327.677 415.389L325.756 418.525H324.295L327.016 414.344L324.295 410.101H325.879L327.877 413.222L329.783 410.101H331.244L328.538 414.267L331.259 418.525H329.676ZM336.134 408.687V407.411H339.024V418.525H337.61V408.687H336.134ZM349.774 410.916C349.476 410.291 349.046 409.809 348.482 409.471C347.919 409.123 347.263 408.949 346.515 408.949C345.767 408.949 345.09 409.123 344.486 409.471C343.891 409.809 343.42 410.301 343.071 410.947C342.733 411.582 342.564 412.32 342.564 413.161C342.564 414.001 342.733 414.739 343.071 415.374C343.42 416.009 343.891 416.501 344.486 416.85C345.09 417.188 345.767 417.357 346.515 417.357C347.56 417.357 348.421 417.045 349.097 416.419C349.774 415.794 350.168 414.949 350.281 413.883H346.008V412.745H351.772V413.822C351.69 414.703 351.413 415.512 350.942 416.25C350.471 416.978 349.851 417.557 349.082 417.987C348.313 418.408 347.458 418.618 346.515 418.618C345.521 418.618 344.614 418.387 343.794 417.926C342.974 417.454 342.323 416.804 341.842 415.974C341.37 415.144 341.135 414.206 341.135 413.161C341.135 412.115 341.37 411.178 341.842 410.347C342.323 409.507 342.974 408.856 343.794 408.395C344.614 407.924 345.521 407.688 346.515 407.688C347.652 407.688 348.657 407.97 349.528 408.533C350.409 409.097 351.05 409.891 351.449 410.916H349.774ZM355.021 411.669C355.307 411.167 355.728 410.757 356.281 410.44C356.834 410.122 357.465 409.963 358.172 409.963C358.93 409.963 359.612 410.142 360.216 410.501C360.821 410.86 361.297 411.367 361.646 412.023C361.994 412.669 362.169 413.422 362.169 414.283C362.169 415.133 361.994 415.892 361.646 416.558C361.297 417.224 360.816 417.741 360.201 418.11C359.596 418.479 358.92 418.664 358.172 418.664C357.444 418.664 356.804 418.505 356.25 418.187C355.707 417.87 355.297 417.465 355.021 416.973V418.525H353.622V407.15H355.021V411.669ZM360.739 414.283C360.739 413.647 360.611 413.094 360.355 412.622C360.098 412.151 359.75 411.792 359.309 411.546C358.879 411.3 358.402 411.178 357.88 411.178C357.367 411.178 356.891 411.306 356.45 411.562C356.02 411.808 355.671 412.172 355.405 412.653C355.149 413.125 355.021 413.673 355.021 414.298C355.021 414.933 355.149 415.492 355.405 415.974C355.671 416.445 356.02 416.809 356.45 417.065C356.891 417.311 357.367 417.434 357.88 417.434C358.402 417.434 358.879 417.311 359.309 417.065C359.75 416.809 360.098 416.445 360.355 415.974C360.611 415.492 360.739 414.928 360.739 414.283ZM364.456 418.618C364.189 418.618 363.964 418.525 363.779 418.341C363.595 418.156 363.503 417.931 363.503 417.665C363.503 417.398 363.595 417.173 363.779 416.988C363.964 416.804 364.189 416.711 364.456 416.711C364.712 416.711 364.927 416.804 365.101 416.988C365.286 417.173 365.378 417.398 365.378 417.665C365.378 417.931 365.286 418.156 365.101 418.341C364.927 418.525 364.712 418.618 364.456 418.618Z" fill="#777E91"/>
</g>
<defs>
<filter id="filter0_dd_172_24015" x="0" y="0.0199966" width="628" height="677.461" filterUnits="userSpaceOnUse" color-interpolation-filters="sRGB">
<feFlood flood-opacity="0" result="BackgroundImageFix"/>
<feColorMatrix in="SourceAlpha" type="matrix" values="0 0 0 0 0 0 0 0 0 0 0 0 0 0 0 0 0 0 127 0" result="hardAlpha"/>
<feMorphology radius="61.4886" operator="erode" in="SourceAlpha" result="effect1_dropShadow_172_24015"/>
<feOffset dy="81.9848"/>
<feGaussianBlur stdDeviation="40.9924"/>
<feColorMatrix type="matrix" values="0 0 0 0 0.0583333 0 0 0 0 0.0583333 0 0 0 0 0.0583333 0 0 0 0.1 0"/>
<feBlend mode="multiply" in2="BackgroundImageFix" result="effect1_dropShadow_172_24015"/>
<feColorMatrix in="SourceAlpha" type="matrix" values="0 0 0 0 0 0 0 0 0 0 0 0 0 0 0 0 0 0 127 0" result="hardAlpha"/>
<feOffset dy="-81.98"/>
<feGaussianBlur stdDeviation="40"/>
<feComposite in2="hardAlpha" operator="out"/>
<feColorMatrix type="matrix" values="0 0 0 0 0 0 0 0 0 0 0 0 0 0 0 0 0 0 0.05 0"/>
<feBlend mode="normal" in2="effect1_dropShadow_172_24015" result="effect2_dropShadow_172_24015"/>
<feBlend mode="normal" in="SourceGraphic" in2="effect2_dropShadow_172_24015" result="shape"/>
</filter>
</defs>
</svg>
